<?xml version="1.0" standalone="no"?>
<!DOCTYPE svg PUBLIC "-//W3C//DTD SVG 20010904//EN"
 "http://www.w3.org/TR/2001/REC-SVG-20010904/DTD/svg10.dtd">
<svg version="1.0" xmlns="http://www.w3.org/2000/svg"
 width="73.000000pt" height="73.000000pt" viewBox="0 0 73.000000 73.000000"
 preserveAspectRatio="xMidYMid meet">
<metadata>
Created by potrace 1.11, written by Peter Selinger 2001-2013
</metadata>
<g transform="translate(0.000000,73.000000) scale(0.100000,-0.100000)"
fill="#000000" stroke="none">
<path d="M330 605 c-12 -20 -24 -53 -27 -75 -6 -42 -19 -52 -30 -22 -6 17 -22
32 -34 32 -9 0 1 -70 12 -92 26 -48 -3 -51 -33 -3 -27 41 -35 44 -34 13 1 -21
-3 -23 -51 -22 -58 2 -60 -4 -15 -64 24 -32 24 -33 6 -46 -17 -13 -14 -16 39
-42 56 -28 58 -30 52 -61 -7 -38 -1 -40 53 -17 56 23 131 28 182 10 24 -8 46
-13 48 -11 2 2 -2 13 -8 25 -10 18 -8 26 11 46 12 13 37 34 55 46 19 13 34 27
34 31 0 5 -5 5 -10 2 -23 -14 -20 27 5 60 30 39 23 43 -40 20 -22 -8 -41 -15
-42 -15 -1 0 -3 10 -5 22 -3 21 -3 21 -28 -5 -50 -53 -66 -19 -30 62 11 24 18
46 15 49 -3 3 -5 0 -5 -6 0 -7 -7 -12 -15 -12 -9 0 -18 -7 -21 -15 -10 -24
-33 -17 -40 11 -4 14 -7 46 -8 70 0 24 -4 44 -8 44 -3 0 -16 -16 -28 -35z"/>
</g>
</svg>
